# xmcd
#
# Track frame offsets:
#	150
#	15284
#	44873
#	64218
#	87150
#	102074
#	120895
#	136202
#	153079
#	169453
#	192470
#	208142
#
# Disc length: 2942 seconds
#
# Revision: 0
# Processed by: cddbd v1.4PL0 Copyright (c) Steve Scherf et al.
# Submitted via: EasyCDDAExtractor 4.6.0.1
#
DISCID=9e0b7c0c
DTITLE=Fred Sanders - Long Time Comin'
DYEAR=1900
DGENRE=Blues
TTITLE0=I Got a Feeling
TTITLE1=Daddy Cain
TTITLE2=Everybody wants to go to Heaven
TTITLE3=House is not a Home
TTITLE4=Light Bulb
TTITLE5=Big Bad Wolf
TTITLE6=Hey baby
TTITLE7=Who are You
TTITLE8=How I Feel
TTITLE9=Hello Baby
TTITLE10=Rosie Ann
TTITLE11=I'm in Love
EXTD=
EXTT0=
EXTT1=
EXTT2=
EXTT3=
EXTT4=
EXTT5=
EXTT6=
EXTT7=
EXTT8=
EXTT9=
EXTT10=
EXTT11=
PLAYORDER=
